<svg t="1627167894364" class="icon" viewBox="0 0 1024 1024" version="1.1" xmlns="http://www.w3.org/2000/svg" p-id="3591" width="32" height="32" xmlns:xlink="http://www.w3.org/1999/xlink"><defs><style type="text/css">@font-face { font-family: feedback-iconfont; src: url("//at.alicdn.com/t/font_1031158_1uhr8ri0pk5.eot?#iefix") format("embedded-opentype"), url("//at.alicdn.com/t/font_1031158_1uhr8ri0pk5.woff2") format("woff2"), url("//at.alicdn.com/t/font_1031158_1uhr8ri0pk5.woff") format("woff"), url("//at.alicdn.com/t/font_1031158_1uhr8ri0pk5.ttf") format("truetype"), url("//at.alicdn.com/t/font_1031158_1uhr8ri0pk5.svg#iconfont") format("svg"); }
</style></defs><path d="M810.666667 1024H213.333333a128 128 0 0 1-128-128v-85.333333a128 128 0 0 1 128-128h597.333334a128 128 0 0 1 128 128v85.333333a128 128 0 0 1-128 128zM213.333333 768a42.666667 42.666667 0 0 0-42.666666 42.666667v85.333333a42.666667 42.666667 0 0 0 42.666666 42.666667h597.333334a42.666667 42.666667 0 0 0 42.666666-42.666667v-85.333333a42.666667 42.666667 0 0 0-42.666666-42.666667z" p-id="3592"></path><path d="M512 853.333333m-42.666667 0a42.666667 42.666667 0 1 0 85.333334 0 42.666667 42.666667 0 1 0-85.333334 0Z" p-id="3593"></path><path d="M384 853.333333m-42.666667 0a42.666667 42.666667 0 1 0 85.333334 0 42.666667 42.666667 0 1 0-85.333334 0Z" p-id="3594"></path><path d="M256 853.333333m-42.666667 0a42.666667 42.666667 0 1 0 85.333334 0 42.666667 42.666667 0 1 0-85.333334 0Z" p-id="3595"></path><path d="M640 853.333333m-42.666667 0a42.666667 42.666667 0 1 0 85.333334 0 42.666667 42.666667 0 1 0-85.333334 0Z" p-id="3596"></path><path d="M768 853.333333m-42.666667 0a42.666667 42.666667 0 1 0 85.333334 0 42.666667 42.666667 0 1 0-85.333334 0Z" p-id="3597"></path><path d="M768 597.333333a253.44 253.44 0 0 1-190.293333-85.333333H128a128 128 0 0 1-128-128V298.666667a128 128 0 0 1 128-128h449.28a256 256 0 0 1 442.026667 221.013333 256 256 0 0 1-199.253334 200.533333A273.493333 273.493333 0 0 1 768 597.333333zM128 256a42.666667 42.666667 0 0 0-42.666667 42.666667v85.333333a42.666667 42.666667 0 0 0 42.666667 42.666667h469.333333a42.666667 42.666667 0 0 1 34.133334 17.066666 170.666667 170.666667 0 0 0 303.786666-67.84A170.666667 170.666667 0 0 0 768 170.666667a170.666667 170.666667 0 0 0-136.533333 68.266666 42.666667 42.666667 0 0 1-34.133334 17.066667z" p-id="3598"></path><path d="M170.666667 512a42.666667 42.666667 0 0 1-42.666667-42.666667V384a42.666667 42.666667 0 0 1 85.333333 0v85.333333a42.666667 42.666667 0 0 1-42.666666 42.666667zM298.666667 512a42.666667 42.666667 0 0 1-42.666667-42.666667V384a42.666667 42.666667 0 0 1 85.333333 0v85.333333a42.666667 42.666667 0 0 1-42.666666 42.666667zM426.666667 512a42.666667 42.666667 0 0 1-42.666667-42.666667V384a42.666667 42.666667 0 0 1 85.333333 0v85.333333a42.666667 42.666667 0 0 1-42.666666 42.666667z" p-id="3599"></path><path d="M853.333333 341.333333m-42.666666 0a42.666667 42.666667 0 1 0 85.333333 0 42.666667 42.666667 0 1 0-85.333333 0Z" p-id="3600"></path></svg>